<svg width="133" height="48" viewBox="0 0 133 48" fill="none" xmlns="http://www.w3.org/2000/svg">
<mask id="mask0_179_476" style="mask-type:luminance" maskUnits="userSpaceOnUse" x="18" y="7" width="20" height="22">
<path d="M18.4923 7H24.3144C27.517 7 30.1364 9.61942 30.1364 12.8221V16.4923C29.7763 22.8076 32.0662 26.6896 37.0063 28.1365C32.2299 27.8213 27.694 25.7872 24.2683 22.3604C20.8426 18.9347 18.8085 14.3978 18.4923 9.62249V7Z" fill="white"/>
</mask>
<g mask="url(#mask0_179_476)">
<path d="M37.0063 7H18.4923V28.1365H37.0063V7Z" fill="url(#paint0_linear_179_476)"/>
</g>
<mask id="mask1_179_476" style="mask-type:luminance" maskUnits="userSpaceOnUse" x="18" y="7" width="20" height="22">
<path d="M18.4923 7H24.3144C27.517 7 30.1364 9.61942 30.1364 12.8221V16.4923C29.7763 22.8076 32.0662 26.6896 37.0063 28.1365C32.2299 27.8213 27.694 25.7872 24.2683 22.3604C20.8426 18.9347 18.8085 14.3978 18.4923 9.62249V7Z" fill="white"/>
</mask>
<g mask="url(#mask1_179_476)">
<path d="M37.0063 7H18.4923V28.1365H37.0063V7Z" fill="url(#paint1_linear_179_476)"/>
</g>
<mask id="mask2_179_476" style="mask-type:luminance" maskUnits="userSpaceOnUse" x="30" y="16" width="10" height="13">
<path d="M30.1365 16.4923C29.7763 22.8076 32.0662 26.6896 37.0063 28.1365H39.6288V22.3144C39.6288 19.1128 37.0094 16.4923 33.8067 16.4923H30.1365Z" fill="white"/>
</mask>
<g mask="url(#mask2_179_476)">
<path d="M39.6288 16.4923H29.7763V28.1365H39.6288V16.4923Z" fill="url(#paint2_linear_179_476)"/>
</g>
<mask id="mask3_179_476" style="mask-type:luminance" maskUnits="userSpaceOnUse" x="30" y="16" width="10" height="13">
<path d="M30.1365 16.4923C29.7763 22.8076 32.0662 26.6896 37.0063 28.1365H39.6288V22.3144C39.6288 19.1128 37.0094 16.4923 33.8067 16.4923H30.1365Z" fill="white"/>
</mask>
<g mask="url(#mask3_179_476)">
<path d="M39.6288 16.4923H29.7763V28.1365H39.6288V16.4923Z" fill="url(#paint3_linear_179_476)"/>
</g>
<mask id="mask4_179_476" style="mask-type:luminance" maskUnits="userSpaceOnUse" x="30" y="16" width="8" height="13">
<path d="M30.1365 16.4923C29.7763 22.8076 32.0662 26.6896 37.0063 28.1365C32.804 25.9171 30.7105 21.0743 31.9711 16.4923H30.1354H30.1365Z" fill="white"/>
</mask>
<g mask="url(#mask4_179_476)">
<path d="M37.0073 16.4923H29.7763V28.1365H37.0073V16.4923Z" fill="url(#paint4_linear_179_476)"/>
</g>
<mask id="mask5_179_476" style="mask-type:luminance" maskUnits="userSpaceOnUse" x="11" y="18" width="20" height="23">
<path d="M30.1364 40.0415H24.3144C21.1128 40.0415 18.4923 37.4221 18.4923 34.2195V30.5492C18.8525 24.2339 16.5625 20.3519 11.6225 18.9051C16.3988 19.2202 20.9347 21.2544 24.3604 24.6811C27.7861 28.1068 29.8203 32.6437 30.1364 37.419V40.0415Z" fill="white"/>
</mask>
<g mask="url(#mask5_179_476)">
<path d="M30.1364 18.9051H11.6225V40.0415H30.1364V18.9051Z" fill="url(#paint5_linear_179_476)"/>
</g>
<mask id="mask6_179_476" style="mask-type:luminance" maskUnits="userSpaceOnUse" x="11" y="18" width="20" height="23">
<path d="M30.1364 40.0415H24.3144C21.1128 40.0415 18.4923 37.4221 18.4923 34.2195V30.5492C18.8525 24.2339 16.5625 20.3519 11.6225 18.9051C16.3988 19.2202 20.9347 21.2544 24.3604 24.6811C27.7861 28.1068 29.8203 32.6437 30.1364 37.419V40.0415Z" fill="white"/>
</mask>
<g mask="url(#mask6_179_476)">
<path d="M30.1364 18.9051H11.6225V40.0415H30.1364V18.9051Z" fill="url(#paint6_linear_179_476)"/>
</g>
<mask id="mask7_179_476" style="mask-type:luminance" maskUnits="userSpaceOnUse" x="9" y="18" width="10" height="13">
<path d="M18.4923 30.5492C18.8525 24.234 16.5625 20.3519 11.6225 18.9051H8.99998V24.7271C8.99998 27.9288 11.6194 30.5492 14.8221 30.5492H18.4923Z" fill="white"/>
</mask>
<g mask="url(#mask7_179_476)">
<path d="M18.8535 18.9051H8.99998V30.5492H18.8535V18.9051Z" fill="url(#paint7_linear_179_476)"/>
</g>
<mask id="mask8_179_476" style="mask-type:luminance" maskUnits="userSpaceOnUse" x="9" y="18" width="10" height="13">
<path d="M18.4923 30.5492C18.8525 24.234 16.5625 20.3519 11.6225 18.9051H8.99998V24.7271C8.99998 27.9288 11.6194 30.5492 14.8221 30.5492H18.4923Z" fill="white"/>
</mask>
<g mask="url(#mask8_179_476)">
<path d="M18.8535 18.9051H8.99998V30.5492H18.8535V18.9051Z" fill="url(#paint8_linear_179_476)"/>
</g>
<mask id="mask9_179_476" style="mask-type:luminance" maskUnits="userSpaceOnUse" x="11" y="18" width="8" height="13">
<path d="M18.4923 30.5492C18.8525 24.2339 16.5625 20.3519 11.6225 18.9051C15.8248 21.1244 17.9183 25.9673 16.6577 30.5492H18.4933H18.4923Z" fill="white"/>
</mask>
<g mask="url(#mask9_179_476)">
<path d="M18.8535 18.9051H11.6225V30.5492H18.8535V18.9051Z" fill="url(#paint9_linear_179_476)"/>
</g>
<mask id="mask10_179_476" style="mask-type:luminance" maskUnits="userSpaceOnUse" x="11" y="18" width="8" height="13">
<path d="M18.4923 30.5492C18.8525 24.2339 16.5625 20.3519 11.6225 18.9051C15.8248 21.1244 17.9183 25.9673 16.6577 30.5492H18.4933H18.4923Z" fill="white"/>
</mask>
<g mask="url(#mask10_179_476)">
<path d="M18.8535 18.9051H11.6225V30.5492H18.8535V18.9051Z" fill="url(#paint10_linear_179_476)"/>
</g>
<path d="M51.4633 20.3112H50L53.2706 11.2357H54.829L58.0996 20.3112H56.6483L55.9468 18.2656H52.1648L51.4633 20.3112ZM54.0551 12.7217L52.5919 17.0272H55.5171L54.0538 12.7217H54.0551Z" fill="url(#paint11_linear_179_476)"/>
<path d="M62.3569 20.3112V11.2357H65.8658C66.9127 11.2357 67.6772 11.47 68.1618 11.9372C68.55 12.3174 68.7442 12.8409 68.7442 13.5076C68.7442 14.0471 68.6156 14.5023 68.3573 14.8758C68.0989 15.248 67.7441 15.4743 67.2929 15.5532C67.9034 15.6162 68.3733 15.8384 68.7027 16.2186C69.032 16.5988 69.1967 17.0982 69.1967 17.7167C69.1967 18.113 69.1311 18.4664 68.9999 18.7757C68.8687 19.0849 68.6879 19.3433 68.459 19.5481C68.1417 19.8333 67.7588 20.0314 67.3117 20.1426C66.8632 20.2537 66.4294 20.3086 66.0091 20.3086H62.3582L62.3569 20.3112ZM65.8069 15.0887C66.2902 15.0887 66.6651 14.9762 66.9315 14.75C67.1965 14.5237 67.3304 14.2011 67.3304 13.7807C67.3304 13.4005 67.2153 13.1033 66.985 12.8891C66.6999 12.628 66.2233 12.4968 65.5579 12.4968H63.7613V15.09H65.8069V15.0887ZM65.8417 19.0501C66.159 19.0501 66.4495 19.0247 66.7159 18.9725C66.981 18.9216 67.2099 18.8078 67.4 18.6338C67.6611 18.3955 67.7923 18.0554 67.7923 17.6109C67.7923 17.0486 67.6223 16.6832 67.2809 16.5172C66.9395 16.3511 66.5312 16.2668 66.0559 16.2668H63.7599V19.0501H65.8417Z" fill="url(#paint12_linear_179_476)"/>
<path d="M71.8367 19.9953C71.3374 19.6981 70.9491 19.2898 70.6707 18.7703C70.3935 18.2509 70.2543 17.6699 70.2543 17.0272C70.2543 16.4248 70.3788 15.8572 70.6292 15.327C70.8795 14.7955 71.249 14.3671 71.7417 14.0418C72.233 13.7165 72.8234 13.5545 73.5142 13.5545C74.1006 13.5545 74.6415 13.6816 75.1381 13.9347C75.6335 14.189 76.0325 14.5666 76.3337 15.07C76.6349 15.5733 76.7862 16.1865 76.7862 16.9081V17.2655H71.5891C71.6132 17.5266 71.6761 17.7649 71.7792 17.9791C71.9371 18.3834 72.1754 18.7047 72.4927 18.943C72.81 19.1813 73.1702 19.3005 73.5745 19.3005C73.9788 19.3005 74.355 19.192 74.6562 18.9738C74.9574 18.7556 75.1756 18.4758 75.3109 18.1357H76.6791C76.4568 18.8172 76.082 19.3728 75.5545 19.8012C75.027 20.2296 74.359 20.4438 73.5504 20.4438C72.9078 20.4438 72.3374 20.2952 71.8381 19.998L71.8367 19.9953ZM75.4287 16.2079C75.3965 15.9616 75.3296 15.7514 75.2265 15.5773C75.0672 15.2761 74.8396 15.0445 74.5424 14.8812C74.2452 14.7192 73.9185 14.6375 73.5611 14.6375C73.2036 14.6375 72.8596 14.7192 72.5744 14.8812C72.2892 15.0432 72.063 15.2761 71.897 15.5773C71.8019 15.7367 71.727 15.9455 71.6707 16.2079H75.4287Z" fill="url(#paint13_linear_179_476)"/>
<path d="M80.0434 20.3113C79.528 20.3113 79.1397 20.1921 78.8773 19.9538C78.6149 19.7155 78.4851 19.3152 78.4851 18.7529V14.7808H77.4622V13.687H78.4851V11.237H79.793V13.687H81.1733V14.7808H79.793V18.4089C79.793 18.686 79.8332 18.8881 79.9122 19.0153C79.9912 19.1425 80.1732 19.2054 80.4597 19.2054H81.1613V20.3113H80.0434Z" fill="url(#paint14_linear_179_476)"/>
<path d="M84.468 20.3113C83.9526 20.3113 83.5644 20.1921 83.302 19.9538C83.0396 19.7155 82.9097 19.3152 82.9097 18.7529V14.7808H81.8869V13.687H82.9097V11.237H84.2177V13.687H85.598V14.7808H84.2177V18.4089C84.2177 18.686 84.2579 18.8881 84.3368 19.0153C84.4158 19.1425 84.5979 19.2054 84.8844 19.2054H85.5859V20.3113H84.468Z" fill="url(#paint15_linear_179_476)"/>
<path d="M87.9529 19.9953C87.4535 19.6981 87.0653 19.2898 86.7868 18.7703C86.5097 18.2509 86.3704 17.6699 86.3704 17.0272C86.3704 16.4248 86.4949 15.8572 86.7453 15.327C86.9956 14.7955 87.3651 14.3671 87.8578 14.0418C88.3491 13.7165 88.9395 13.5545 89.6303 13.5545C90.2167 13.5545 90.7576 13.6816 91.2543 13.9347C91.7496 14.189 92.1486 14.5666 92.4498 15.07C92.751 15.5733 92.9023 16.1865 92.9023 16.9081V17.2655H87.7052C87.7293 17.5266 87.7922 17.7649 87.8953 17.9791C88.0533 18.3834 88.2916 18.7047 88.6089 18.943C88.9262 19.1813 89.2863 19.3005 89.6906 19.3005C90.0949 19.3005 90.4711 19.192 90.7723 18.9738C91.0735 18.7556 91.2918 18.4758 91.427 18.1357H92.7952C92.573 18.8172 92.1981 19.3728 91.6706 19.8012C91.1432 20.2296 90.4751 20.4438 89.6665 20.4438C89.0239 20.4438 88.4536 20.2952 87.9542 19.998L87.9529 19.9953ZM91.5448 16.2079C91.5127 15.9616 91.4457 15.7514 91.3426 15.5773C91.1833 15.2761 90.9557 15.0445 90.6585 14.8812C90.3613 14.7192 90.0347 14.6375 89.6772 14.6375C89.3197 14.6375 88.9757 14.7192 88.6905 14.8812C88.4054 15.0432 88.1791 15.2761 88.0131 15.5773C87.9181 15.7367 87.8431 15.9455 87.7869 16.2079H91.5448Z" fill="url(#paint16_linear_179_476)"/>
<path d="M94.1969 20.3112V13.687H95.5049V14.5318C95.774 14.1823 96.0712 13.9333 96.3965 13.782C96.7219 13.6321 97.098 13.5558 97.5265 13.5558H97.6577V14.8397H97.3002C96.7687 14.8397 96.3564 14.9869 96.0632 15.2801C95.691 15.6376 95.5036 16.224 95.5036 17.0406V20.3112H94.1956H94.1969Z" fill="url(#paint17_linear_179_476)"/>
<path d="M51.9037 35.1686C51.2611 34.7442 50.7832 34.1779 50.4699 33.4683C50.1566 32.7588 50 31.9756 50 31.1188C50 30.262 50.1566 29.4788 50.4699 28.7692C50.7832 28.0597 51.2611 27.4947 51.9037 27.0744C52.5463 26.654 53.3389 26.4438 54.2827 26.4438C55.3297 26.4438 56.1811 26.6995 56.8398 27.2109C57.4985 27.7223 57.8947 28.4064 58.0286 29.2632H56.4944C56.3993 28.7719 56.153 28.389 55.7567 28.1159C55.3604 27.8428 54.8611 27.7063 54.2586 27.7063C53.355 27.7063 52.6588 28.0182 52.1715 28.6394C51.6842 29.2619 51.4405 30.0879 51.4405 31.1188C51.4405 32.1496 51.6842 32.9904 52.1715 33.6169C52.6588 34.2435 53.355 34.5568 54.2586 34.5568C54.8691 34.5568 55.3712 34.4082 55.7634 34.1109C56.1557 33.8137 56.3993 33.384 56.4944 32.8204H58.0286C57.8854 33.7481 57.4891 34.4778 56.8398 35.0093C56.1892 35.5408 55.3377 35.8058 54.2827 35.8058C53.3389 35.8058 52.5463 35.5943 51.9037 35.1699V35.1686Z" fill="url(#paint18_linear_179_476)"/>
<path d="M59.267 35.6626V26.587H60.575V29.9648C60.8601 29.5765 61.152 29.3034 61.4492 29.1441C61.7464 28.9861 62.0811 28.9058 62.4546 28.9058C63.4306 28.9058 64.1 29.2632 64.4641 29.9768C64.5993 30.2379 64.6823 30.5056 64.7145 30.7801C64.7466 31.0532 64.7627 31.3812 64.7627 31.7614V35.6626H63.4547V31.7493C63.4547 31.3999 63.4266 31.1134 63.3717 30.8872C63.3154 30.6609 63.2244 30.4815 63.0986 30.3463C62.9004 30.1241 62.5912 30.013 62.1708 30.013C61.6955 30.013 61.326 30.1642 61.065 30.4655C60.8909 30.6556 60.7651 30.914 60.6901 31.2379C60.6151 31.5633 60.5777 32.0037 60.5777 32.558V35.6626H59.2697H59.267Z" fill="url(#paint19_linear_179_476)"/>
<path d="M67.6103 35.3533C67.1069 35.0601 66.7146 34.6491 66.4335 34.123C66.1523 33.5955 66.0118 32.9957 66.0118 32.321C66.0118 31.6463 66.1523 31.0759 66.4335 30.5605C66.7146 30.0451 67.1069 29.6408 67.6103 29.3476C68.1136 29.0544 68.6866 28.9071 69.3292 28.9071C69.9719 28.9071 70.5449 29.0544 71.0482 29.3476C71.5516 29.6408 71.9439 30.0451 72.2263 30.5605C72.5075 31.0759 72.6481 31.6623 72.6481 32.321C72.6481 32.9797 72.5088 33.5835 72.2317 34.1109C71.9546 34.6384 71.5637 35.0508 71.0603 35.348C70.5569 35.6452 69.9799 35.7938 69.3292 35.7938C68.6786 35.7938 68.1136 35.6465 67.6103 35.3533ZM70.3507 34.3533C70.652 34.1551 70.8876 33.878 71.0589 33.5205C71.229 33.1631 71.3146 32.7628 71.3146 32.3197C71.3146 31.8765 71.229 31.5043 71.0589 31.1603C70.8889 30.8149 70.652 30.5444 70.3507 30.345C70.0495 30.1468 69.7081 30.0478 69.3279 30.0478C68.9477 30.0478 68.6063 30.1455 68.3051 30.3396C68.0039 30.5337 67.7682 30.8028 67.5969 31.1482C67.4268 31.4936 67.3412 31.8832 67.3412 32.3197C67.3412 32.7561 67.4268 33.1738 67.5969 33.5272C67.7669 33.8807 68.0025 34.1551 68.3051 34.3533C68.6063 34.5514 68.9477 34.6505 69.3279 34.6505C69.7081 34.6505 70.0495 34.5514 70.3507 34.3533Z" fill="url(#paint20_linear_179_476)"/>
<path d="M73.9909 27.8709C73.8168 27.7129 73.7298 27.5135 73.7298 27.2765C73.7298 27.0395 73.8168 26.8401 73.9909 26.6821C74.1649 26.5241 74.3711 26.4438 74.6094 26.4438C74.8477 26.4438 75.0632 26.5228 75.2332 26.6821C75.4033 26.8414 75.4889 27.0395 75.4889 27.2765C75.4889 27.5135 75.4033 27.7129 75.2332 27.8709C75.0632 28.0302 74.8544 28.1092 74.6094 28.1092C74.3644 28.1092 74.1649 28.0302 73.9909 27.8709ZM75.264 35.6626H73.9561V29.0383H75.264V35.6626Z" fill="url(#paint21_linear_179_476)"/>
<path d="M78.1357 35.3533C77.6404 35.0601 77.2534 34.6491 76.9763 34.123C76.6992 33.5955 76.56 32.9957 76.56 32.321C76.56 31.6463 76.6992 31.0759 76.9763 30.5605C77.2534 30.0451 77.6404 29.6408 78.1357 29.3476C78.631 29.0544 79.2 28.9071 79.8426 28.9071C80.6111 28.9071 81.2644 29.1053 81.7986 29.5015C82.3341 29.8978 82.6808 30.4293 82.8388 31.0947H81.4358C81.3166 30.7533 81.1185 30.4882 80.8414 30.2981C80.5642 30.108 80.2309 30.013 79.8426 30.013C79.4544 30.013 79.125 30.1107 78.8319 30.3048C78.5387 30.4989 78.3084 30.7707 78.1424 31.1201C77.9764 31.4695 77.892 31.8698 77.892 32.321C77.892 32.7722 77.975 33.2006 78.1424 33.558C78.3084 33.9155 78.5387 34.1926 78.8319 34.3907C79.125 34.5889 79.4624 34.688 79.8426 34.688C80.255 34.688 80.6057 34.5795 80.8949 34.3613C81.1841 34.1431 81.3769 33.8512 81.4719 33.4871H82.887C82.7357 34.2006 82.385 34.7643 81.8347 35.1766C81.2832 35.5889 80.6191 35.7951 79.8426 35.7951C79.2 35.7951 78.631 35.6479 78.1357 35.3547V35.3533Z" fill="url(#paint22_linear_179_476)"/>
<path d="M85.4092 35.3466C84.9099 35.0494 84.5216 34.6411 84.2432 34.1217C83.9661 33.6022 83.8268 33.0212 83.8268 32.3786C83.8268 31.7761 83.9513 31.2085 84.2017 30.6783C84.452 30.1468 84.8215 29.7184 85.3142 29.3931C85.8055 29.0678 86.3959 28.9058 87.0867 28.9058C87.6731 28.9058 88.214 29.033 88.7107 29.286C89.206 29.5404 89.605 29.9179 89.9062 30.4213C90.2074 30.9247 90.3587 31.5378 90.3587 32.2594V32.6169H85.1616C85.1857 32.8779 85.2486 33.1162 85.3517 33.3304C85.5097 33.7348 85.748 34.0561 86.0652 34.2944C86.3825 34.5327 86.7427 34.6518 87.147 34.6518C87.5513 34.6518 87.9275 34.5434 88.2287 34.3252C88.5299 34.1069 88.7481 33.8271 88.8834 33.4871H90.2516C90.0294 34.1685 89.6545 34.7241 89.127 35.1525C88.5995 35.5809 87.9315 35.7951 87.1229 35.7951C86.4803 35.7951 85.9099 35.6465 85.4106 35.3493L85.4092 35.3466ZM89.0012 31.5592C88.969 31.3129 88.9021 31.1027 88.799 30.9287C88.6397 30.6275 88.4121 30.3959 88.1149 30.2325C87.8177 30.0705 87.491 29.9889 87.1336 29.9889C86.7761 29.9889 86.4321 30.0705 86.1469 30.2325C85.8618 30.3945 85.6355 30.6275 85.4695 30.9287C85.3744 31.088 85.2995 31.2968 85.2432 31.5592H89.0012Z" fill="url(#paint23_linear_179_476)"/>
<path d="M96.5653 35.1686C95.9227 34.7442 95.4447 34.1779 95.1314 33.4683C94.8182 32.7588 94.6615 31.9756 94.6615 31.1188C94.6615 30.262 94.8182 29.4788 95.1314 28.7692C95.4447 28.0597 95.9227 27.4947 96.5653 27.0744C97.2079 26.654 98.0004 26.4438 98.9443 26.4438C99.9912 26.4438 100.843 26.6995 101.501 27.2109C102.16 27.7223 102.556 28.4064 102.69 29.2632H101.156C101.061 28.7719 100.815 28.389 100.418 28.1159C100.022 27.8428 99.5226 27.7063 98.9202 27.7063C98.0165 27.7063 97.3203 28.0182 96.833 28.6394C96.3457 29.2619 96.102 30.0879 96.102 31.1188C96.102 32.1496 96.3457 32.9904 96.833 33.6169C97.3203 34.2435 98.0165 34.5568 98.9202 34.5568C99.5306 34.5568 100.033 34.4082 100.425 34.1109C100.817 33.8137 101.061 33.384 101.156 32.8204H102.69C102.547 33.7481 102.151 34.4778 101.501 35.0093C100.851 35.5408 99.9992 35.8058 98.9443 35.8058C98.0004 35.8058 97.2079 35.5943 96.5653 35.1699V35.1686Z" fill="url(#paint24_linear_179_476)"/>
<path d="M104.236 35.2757C103.84 34.9303 103.642 34.4604 103.642 33.866C103.642 33.2715 103.88 32.7762 104.356 32.4268C104.713 32.1657 105.224 31.9702 105.89 31.8444L108.055 31.428C108.047 30.9688 107.923 30.6154 107.686 30.3691C107.425 30.108 107.076 29.9768 106.639 29.9768C106.282 29.9768 105.971 30.0772 105.706 30.2807C105.441 30.4829 105.273 30.7546 105.2 31.096H103.904C104.016 30.3985 104.329 29.859 104.844 29.4788C105.36 29.0986 105.962 28.9085 106.652 28.9085C107.04 28.9085 107.407 28.966 107.752 29.0812C108.097 29.1963 108.388 29.365 108.626 29.5872C108.944 29.8804 109.143 30.2258 109.227 30.6221C109.31 31.0184 109.352 31.4749 109.352 31.9903V35.6653H108.044V34.6893C107.862 34.9986 107.632 35.2409 107.354 35.4149C106.958 35.6693 106.443 35.7951 105.808 35.7951C105.174 35.7951 104.634 35.6224 104.238 35.2784L104.236 35.2757ZM107.02 34.4965C107.408 34.2984 107.68 34.0346 107.835 33.7053C107.989 33.376 108.067 32.9502 108.067 32.4268L106.199 32.7949C105.739 32.89 105.406 33.0332 105.2 33.2233C105.034 33.3894 104.95 33.5915 104.95 33.8298C104.95 34.1069 105.05 34.3238 105.254 34.4778C105.456 34.6331 105.728 34.7094 106.069 34.7094C106.411 34.7094 106.736 34.6384 107.021 34.4952L107.02 34.4965Z" fill="url(#paint25_linear_179_476)"/>
<path d="M110.862 35.6626V29.0383H112.17V29.8831C112.439 29.5337 112.736 29.2847 113.062 29.1334C113.387 28.9834 113.763 28.9071 114.192 28.9071H114.323V30.191H113.965C113.434 30.191 113.021 30.3383 112.728 30.6315C112.356 30.9889 112.169 31.5753 112.169 32.392V35.6626H110.861H110.862Z" fill="url(#paint26_linear_179_476)"/>
<path d="M116.476 35.3466C115.976 35.0494 115.588 34.6411 115.309 34.1217C115.032 33.6022 114.893 33.0212 114.893 32.3786C114.893 31.7761 115.018 31.2085 115.268 30.6783C115.518 30.1468 115.888 29.7184 116.38 29.3931C116.872 29.0678 117.462 28.9058 118.153 28.9058C118.739 28.9058 119.28 29.033 119.777 29.286C120.272 29.5404 120.671 29.9179 120.972 30.4213C121.274 30.9247 121.425 31.5378 121.425 32.2594V32.6169H116.228C116.252 32.8779 116.315 33.1162 116.418 33.3304C116.576 33.7348 116.814 34.0561 117.132 34.2944C117.449 34.5327 117.809 34.6518 118.213 34.6518C118.618 34.6518 118.994 34.5434 119.295 34.3252C119.596 34.1069 119.814 33.8271 119.95 33.4871H121.318C121.096 34.1685 120.721 34.7241 120.193 35.1525C119.666 35.5809 118.998 35.7951 118.189 35.7951C117.547 35.7951 116.976 35.6465 116.477 35.3493L116.476 35.3466ZM120.067 31.5592C120.035 31.3129 119.968 31.1027 119.865 30.9287C119.706 30.6275 119.478 30.3959 119.181 30.2325C118.884 30.0705 118.557 29.9889 118.2 29.9889C117.842 29.9889 117.498 30.0705 117.213 30.2325C116.928 30.3945 116.702 30.6275 116.536 30.9287C116.441 31.088 116.366 31.2968 116.31 31.5592H120.067Z" fill="url(#paint27_linear_179_476)"/>
<defs>
<linearGradient id="paint0_linear_179_476" x1="37.2519" y1="30.9268" x2="13.0519" y2="-3.09192" gradientUnits="userSpaceOnUse">
<stop stop-color="#045304"/>
<stop offset="0.24" stop-color="#1A6A06"/>
<stop offset="0.75" stop-color="#54A70C"/>
<stop offset="1" stop-color="#73C710"/>
</linearGradient>
<linearGradient id="paint1_linear_179_476" x1="17.2406" y1="16.1249" x2="38.2626" y2="19.0121" gradientUnits="userSpaceOnUse">
<stop stop-color="#3377F6"/>
<stop offset="1" stop-color="#1334F5"/>
</linearGradient>
<linearGradient id="paint2_linear_179_476" x1="21.3501" y1="18.7045" x2="52.1723" y2="27.0375" gradientUnits="userSpaceOnUse">
<stop stop-color="#0131B8"/>
<stop offset="0.28" stop-color="#0650C7"/>
<stop offset="0.9" stop-color="#12A1F0"/>
<stop offset="1" stop-color="#15AFF7"/>
</linearGradient>
<linearGradient id="paint3_linear_179_476" x1="30.6604" y1="14.5804" x2="40.9615" y2="34.277" gradientUnits="userSpaceOnUse">
<stop stop-color="#0131B8"/>
<stop offset="0.23" stop-color="#0448C3"/>
<stop offset="0.7" stop-color="#0E85E2"/>
<stop offset="1" stop-color="#15AFF7"/>
</linearGradient>
<linearGradient id="paint4_linear_179_476" x1="21.2611" y1="19.035" x2="52.0823" y2="27.368" gradientUnits="userSpaceOnUse">
<stop stop-color="#0131B8"/>
<stop offset="0.17" stop-color="#0135BA"/>
<stop offset="0.35" stop-color="#0341C0"/>
<stop offset="0.53" stop-color="#0656CA"/>
<stop offset="0.72" stop-color="#0B73D9"/>
<stop offset="0.9" stop-color="#1197EB"/>
<stop offset="1" stop-color="#15AFF7"/>
</linearGradient>
<linearGradient id="paint5_linear_179_476" x1="11.3779" y1="16.1168" x2="35.5779" y2="50.1355" gradientUnits="userSpaceOnUse">
<stop stop-color="#0131B8"/>
<stop offset="0.23" stop-color="#0448C3"/>
<stop offset="0.7" stop-color="#0E85E2"/>
<stop offset="1" stop-color="#15AFF7"/>
</linearGradient>
<linearGradient id="paint6_linear_179_476" x1="10.3713" y1="28.0297" x2="31.3933" y2="30.9169" gradientUnits="userSpaceOnUse">
<stop stop-color="#3377F6"/>
<stop offset="1" stop-color="#1334F5"/>
</linearGradient>
<linearGradient id="paint7_linear_179_476" x1="27.2786" y1="28.337" x2="-3.54458" y2="20.004" gradientUnits="userSpaceOnUse">
<stop stop-color="#045304"/>
<stop offset="0.31" stop-color="#227307"/>
<stop offset="0.98" stop-color="#70C40F"/>
<stop offset="1" stop-color="#73C710"/>
</linearGradient>
<linearGradient id="paint8_linear_179_476" x1="0.113351" y1="18.8779" x2="32.005" y2="32.3818" gradientUnits="userSpaceOnUse">
<stop stop-color="#0131B8"/>
<stop offset="0.28" stop-color="#0650C7"/>
<stop offset="0.9" stop-color="#12A1F0"/>
<stop offset="1" stop-color="#15AFF7"/>
</linearGradient>
<linearGradient id="paint9_linear_179_476" x1="27.3687" y1="28.0075" x2="-3.45453" y2="19.6735" gradientUnits="userSpaceOnUse">
<stop stop-color="#045304"/>
<stop offset="0.18" stop-color="#075704"/>
<stop offset="0.37" stop-color="#136305"/>
<stop offset="0.56" stop-color="#277807"/>
<stop offset="0.75" stop-color="#43950A"/>
<stop offset="0.94" stop-color="#67BA0E"/>
<stop offset="1" stop-color="#73C710"/>
</linearGradient>
<linearGradient id="paint10_linear_179_476" x1="2.30637" y1="19.2514" x2="35.1702" y2="33.1666" gradientUnits="userSpaceOnUse">
<stop stop-color="#0131B8"/>
<stop offset="0.17" stop-color="#0135BA"/>
<stop offset="0.35" stop-color="#0341C0"/>
<stop offset="0.53" stop-color="#0656CA"/>
<stop offset="0.72" stop-color="#0B73D9"/>
<stop offset="0.9" stop-color="#1197EB"/>
<stop offset="1" stop-color="#15AFF7"/>
</linearGradient>
<linearGradient id="paint11_linear_179_476" x1="38.1773" y1="22.3689" x2="125.609" y2="22.3689" gradientUnits="userSpaceOnUse">
<stop stop-color="#3377F6"/>
<stop offset="1" stop-color="#1334F5"/>
</linearGradient>
<linearGradient id="paint12_linear_179_476" x1="38.1773" y1="22.3689" x2="125.609" y2="22.3689" gradientUnits="userSpaceOnUse">
<stop stop-color="#3377F6"/>
<stop offset="1" stop-color="#1334F5"/>
</linearGradient>
<linearGradient id="paint13_linear_179_476" x1="38.1773" y1="22.3689" x2="125.609" y2="22.3689" gradientUnits="userSpaceOnUse">
<stop stop-color="#3377F6"/>
<stop offset="1" stop-color="#1334F5"/>
</linearGradient>
<linearGradient id="paint14_linear_179_476" x1="38.1773" y1="22.3689" x2="125.608" y2="22.3689" gradientUnits="userSpaceOnUse">
<stop stop-color="#3377F6"/>
<stop offset="1" stop-color="#1334F5"/>
</linearGradient>
<linearGradient id="paint15_linear_179_476" x1="38.1773" y1="22.3689" x2="125.609" y2="22.3689" gradientUnits="userSpaceOnUse">
<stop stop-color="#3377F6"/>
<stop offset="1" stop-color="#1334F5"/>
</linearGradient>
<linearGradient id="paint16_linear_179_476" x1="38.1773" y1="22.3689" x2="125.609" y2="22.3689" gradientUnits="userSpaceOnUse">
<stop stop-color="#3377F6"/>
<stop offset="1" stop-color="#1334F5"/>
</linearGradient>
<linearGradient id="paint17_linear_179_476" x1="38.1773" y1="22.3689" x2="125.609" y2="22.3689" gradientUnits="userSpaceOnUse">
<stop stop-color="#3377F6"/>
<stop offset="1" stop-color="#1334F5"/>
</linearGradient>
<linearGradient id="paint18_linear_179_476" x1="37.7623" y1="25.9391" x2="125.194" y2="25.9391" gradientUnits="userSpaceOnUse">
<stop stop-color="#3377F6"/>
<stop offset="1" stop-color="#1334F5"/>
</linearGradient>
<linearGradient id="paint19_linear_179_476" x1="37.7623" y1="25.9391" x2="125.194" y2="25.9391" gradientUnits="userSpaceOnUse">
<stop stop-color="#3377F6"/>
<stop offset="1" stop-color="#1334F5"/>
</linearGradient>
<linearGradient id="paint20_linear_179_476" x1="37.7623" y1="25.9391" x2="125.194" y2="25.9391" gradientUnits="userSpaceOnUse">
<stop stop-color="#3377F6"/>
<stop offset="1" stop-color="#1334F5"/>
</linearGradient>
<linearGradient id="paint21_linear_179_476" x1="37.7623" y1="25.9391" x2="125.194" y2="25.9391" gradientUnits="userSpaceOnUse">
<stop stop-color="#3377F6"/>
<stop offset="1" stop-color="#1334F5"/>
</linearGradient>
<linearGradient id="paint22_linear_179_476" x1="37.7623" y1="25.9391" x2="125.194" y2="25.9391" gradientUnits="userSpaceOnUse">
<stop stop-color="#3377F6"/>
<stop offset="1" stop-color="#1334F5"/>
</linearGradient>
<linearGradient id="paint23_linear_179_476" x1="37.7623" y1="25.9391" x2="125.194" y2="25.9391" gradientUnits="userSpaceOnUse">
<stop stop-color="#3377F6"/>
<stop offset="1" stop-color="#1334F5"/>
</linearGradient>
<linearGradient id="paint24_linear_179_476" x1="37.7623" y1="25.9391" x2="125.194" y2="25.9391" gradientUnits="userSpaceOnUse">
<stop stop-color="#3377F6"/>
<stop offset="1" stop-color="#1334F5"/>
</linearGradient>
<linearGradient id="paint25_linear_179_476" x1="37.7622" y1="25.9391" x2="125.194" y2="25.9391" gradientUnits="userSpaceOnUse">
<stop stop-color="#3377F6"/>
<stop offset="1" stop-color="#1334F5"/>
</linearGradient>
<linearGradient id="paint26_linear_179_476" x1="37.7623" y1="25.9391" x2="125.194" y2="25.9391" gradientUnits="userSpaceOnUse">
<stop stop-color="#3377F6"/>
<stop offset="1" stop-color="#1334F5"/>
</linearGradient>
<linearGradient id="paint27_linear_179_476" x1="37.7624" y1="25.9391" x2="125.194" y2="25.9391" gradientUnits="userSpaceOnUse">
<stop stop-color="#3377F6"/>
<stop offset="1" stop-color="#1334F5"/>
</linearGradient>
</defs>
</svg>
