<svg width="1440" height="1476" viewBox="0 0 1440 1476" fill="none" xmlns="http://www.w3.org/2000/svg">
<rect x="1440" y="1476" width="1440" height="1476" transform="rotate(-180 1440 1476)" fill="#E6F4FF"/>
<rect x="1440" y="1476" width="1440" height="1476" transform="rotate(-180 1440 1476)" fill="url(#paint0_linear_103_231)"/>
<mask id="mask0_103_231" style="mask-type:alpha" maskUnits="userSpaceOnUse" x="0" y="0" width="1440" height="366">
<rect x="1440" y="366" width="1440" height="366" transform="rotate(-180 1440 366)" fill="#E6F4FF"/>
<rect x="1440" y="366" width="1440" height="366" transform="rotate(-180 1440 366)" fill="url(#paint1_linear_103_231)"/>
</mask>
<g mask="url(#mask0_103_231)">
<g opacity="0.2">
<path d="M1349.17 67.8378C1372.49 -0.899979 1408.77 -74.2922 1434.22 2.63385C1442.16 26.6463 1400.92 53.8229 1349.17 67.8378Z" fill="#E6F4FF"/>
<path d="M1349.17 67.8378C1372.49 -0.899979 1408.77 -74.2922 1434.22 2.63385C1442.16 26.6463 1400.92 53.8229 1349.17 67.8378Z" fill="url(#paint2_linear_103_231)"/>
<path d="M1684.38 216.635C1510.58 407.426 1298.53 309.913 1326.92 147.923C1333.67 109.456 1396.1 -112.596 1434.22 2.63386C1456.49 69.9446 1092.29 162.119 1193.32 -80.4469" stroke="#91CAFF" stroke-width="10.8549"/>
</g>
</g>
<defs>
<linearGradient id="paint0_linear_103_231" x1="2160" y1="1845" x2="2160" y2="2952" gradientUnits="userSpaceOnUse">
<stop stop-color="white"/>
<stop offset="1" stop-color="white" stop-opacity="0"/>
</linearGradient>
<linearGradient id="paint1_linear_103_231" x1="2160" y1="366" x2="2160" y2="732" gradientUnits="userSpaceOnUse">
<stop stop-color="white"/>
<stop offset="1" stop-color="white" stop-opacity="0"/>
</linearGradient>
<linearGradient id="paint2_linear_103_231" x1="1147.8" y1="38.1036" x2="1675.41" y2="240.065" gradientUnits="userSpaceOnUse">
<stop stop-color="white"/>
<stop offset="1" stop-color="white" stop-opacity="0"/>
</linearGradient>
</defs>
</svg>
